<?xml version="1.0" standalone="no"?>
<!DOCTYPE svg PUBLIC "-//W3C//DTD SVG 20010904//EN"
 "http://www.w3.org/TR/2001/REC-SVG-20010904/DTD/svg10.dtd">
<svg version="1.0" xmlns="http://www.w3.org/2000/svg"
 width="175.000000pt" height="55.000000pt" viewBox="0 0 175.000000 55.000000"
 preserveAspectRatio="xMidYMid meet">

<g transform="translate(0.000000,55.000000) scale(0.100000,-0.100000)"
fill="#000000" stroke="none">
<path d="M0 275 l0 -275 875 0 875 0 0 275 0 275 -875 0 -875 0 0 -275z m224
73 l48 -103 49 103 48 102 40 0 41 0 0 -190 0 -190 -40 0 -40 0 0 103 -1 102
-36 -68 c-28 -53 -40 -67 -59 -67 -18 0 -31 14 -61 68 l-38 67 -3 -103 -3
-102 -34 0 -35 0 0 190 0 190 38 0 38 0 48 -102z m341 -39 c0 -136 1 -141 24
-160 29 -24 52 -24 82 0 23 18 24 26 27 160 l4 141 34 0 34 0 0 -151 0 -151
-39 -39 c-37 -37 -42 -39 -101 -39 -59 0 -64 2 -101 39 l-39 39 0 151 0 151
38 0 38 0 -1 -141z m451 125 c19 -9 34 -19 34 -23 0 -14 -48 -52 -54 -43 -3 5
-22 13 -42 16 -42 8 -84 -14 -84 -44 0 -24 22 -36 84 -45 31 -5 59 -17 79 -35
26 -23 30 -33 29 -75 0 -40 -6 -53 -31 -79 -30 -30 -35 -31 -114 -31 -64 0
-89 4 -111 19 l-28 18 23 24 c24 23 24 23 71 7 52 -19 92 -12 112 19 19 31 -5
51 -74 65 -73 15 -107 41 -116 89 -8 44 19 98 59 118 42 20 120 20 163 0z
m303 -169 l66 -180 3 183 2 182 101 0 c76 0 108 -4 129 -17 51 -30 66 -101 31
-144 -19 -24 -19 -24 1 -46 42 -45 20 -142 -38 -163 -14 -6 -87 -10 -163 -10
l-139 0 -12 30 c-12 29 -14 30 -80 30 -66 0 -68 -1 -80 -30 -11 -26 -17 -30
-52 -30 -34 0 -39 3 -33 18 4 9 34 91 66 181 33 90 62 168 65 173 3 5 20 8 37
6 30 -3 32 -6 96 -183z"/>
<path d="M1472 338 c3 -38 5 -42 34 -45 47 -6 84 12 84 40 0 35 -19 47 -73 47
l-48 0 3 -42z"/>
<path d="M1206 286 c-9 -22 -19 -50 -22 -63 -6 -21 -3 -23 35 -23 47 0 47 3
22 75 l-18 50 -17 -39z"/>
<path d="M1470 185 l0 -45 53 0 c55 0 77 12 77 41 0 27 -40 49 -87 49 l-43 0
0 -45z"/>
</g>
</svg>
